HIERARCHY
ROOT Hips
{
  OFFSET 263.056 91.6644 -274.608
  CHANNELS 6 Xposition Yposition Zposition Zrotation Xrotation Yrotation
  JOINT LeftUpLeg
  {
    OFFSET 8.64259 1.95398 -2.38835
    CHANNELS 3 Zrotation Xrotation Yrotation
    JOINT LeftLeg
    {
      OFFSET 43.7702 0 0
      CHANNELS 3 Zrotation Xrotation Yrotation
      JOINT LeftFoot
      {
        OFFSET 40.6238 0 0
        CHANNELS 3 Zrotation Xrotation Yrotation
        JOINT LeftToeBase
        {
          OFFSET 12.7242 0 0
          CHANNELS 3 Zrotation Xrotation Yrotation
          End Site
          {
            OFFSET 0 0 0
          }
        }
      }
    }
  }
  JOINT RightUpLeg
  {
    OFFSET -8.2249 1.95398 -2.59336
    CHANNELS 3 Zrotation Xrotation Yrotation
    JOINT RightLeg
    {
      OFFSET 43.5653 0 0
      CHANNELS 3 Zrotation Xrotation Yrotation
      JOINT RightFoot
      {
        OFFSET 40.6238 0 0
        CHANNELS 3 Zrotation Xrotation Yrotation
        JOINT RightToeBase
        {
          OFFSET 12.7242 0 0
          CHANNELS 3 Zrotation Xrotation Yrotation
          End Site
          {
            OFFSET 0 0 0
          }
        }
      }
    }
  }
  JOINT Spine
  {
    OFFSET 0.165834 0.87714 6.61349
    CHANNELS 3 Zrotation Xrotation Yrotation
    JOINT Spine1
    {
      OFFSET 7.38963 1.71661e-005 0
      CHANNELS 3 Zrotation Xrotation Yrotation
      JOINT Spine2
      {
        OFFSET 11.9445 1.14441e-005 0
        CHANNELS 3 Zrotation Xrotation Yrotation
        JOINT Spine3
        {
          OFFSET 14.7254 4.19617e-005 0
          CHANNELS 3 Zrotation Xrotation Yrotation
          JOINT Spine4
          {
            OFFSET 10.9679 0 0
            CHANNELS 3 Zrotation Xrotation Yrotation
            JOINT RightShoulder
            {
              OFFSET 2.46616 -1.6653 3.69651
              CHANNELS 3 Zrotation Xrotation Yrotation
              JOINT RightArm
              {
                OFFSET 13.0012 0 0
                CHANNELS 3 Zrotation Xrotation Yrotation
                JOINT RightForeArm
                {
                  OFFSET 28.7848 1.52588e-005 0
                  CHANNELS 3 Zrotation Xrotation Yrotation
                  JOINT RightHand
                  {
                    OFFSET 26.5688 1.52588e-005 0
                    CHANNELS 3 Zrotation Xrotation Yrotation
                    End Site
                    {
                      OFFSET 0 0 0
                    }
                  }
                }
              }
            }
            JOINT LeftShoulder
            {
              OFFSET 2.38034 -1.29275 -3.7523
              CHANNELS 3 Zrotation Xrotation Yrotation
              JOINT LeftArm
              {
                OFFSET 16.3182 6.10352e-005 0
                CHANNELS 3 Zrotation Xrotation Yrotation
                JOINT LeftForeArm
                {
                  OFFSET 27.0901 0 0
                  CHANNELS 3 Zrotation Xrotation Yrotation
                  JOINT LeftHand
                  {
                    OFFSET 24.5451 1.52588e-005 0
                    CHANNELS 3 Zrotation Xrotation Yrotation
                    End Site
                    {
                      OFFSET 0 0 0
                    }
                  }
                }
              }
            }
            JOINT Neck
            {
              OFFSET 5.0226 -0.0266342 0
              CHANNELS 3 Zrotation Xrotation Yrotation
              JOINT Head
              {
                OFFSET 6.69364 2.86102e-005 0
                CHANNELS 3 Zrotation Xrotation Yrotation
                End Site
                {
                  OFFSET 0 0 0
                }
              }
            }
          }
        }
      }
    }
  }
}
MOTION
Frames:	18
Frame Time:	0.0416667
-273.946 81.4501 -265.865 81.078 17.2603 90.0365 -156.259 50.0657 117.516 -61.9225 22.2378 -32.0265 59.5552 17.0878 52.2828 -108.457 54.3278 -114.319 -147.893 -1.54914 106.134 82.9547 -10.6427 -91.1632 0.85724 -5.10588 12.3988 41.0213 21.1118 145.586 -6.80458 6.92206 -92.2399 12.9429 -14.5828 -2.71557 1.35428 -14.6879 -2.0573 -21.7241 -13.0828 -7.04126 -1.71146 -13.0828 -7.04125 75.2983 -63.6653 -117.081 6.93616 -23.185 55.9093 -30.6077 63.0502 -120.232 -7.76487 2.08355 -52.6659 -122.689 -56.2017 36.6279 -15.4444 2.81954 7.21414 -37.203 4.36793 -117.606 6.45374 6.07263 65.423 -19.054 -4.20997 27.6 27.8293 -7.66651 -14.717 
-271.467 82.8873 -261.781 82.2895 16.2101 89.3668 179.944 48.6857 111.386 -71.8019 -3.95874 -1.32013 60.1041 -14.2827 32.5944 -67.3228 47.769 -134.633 -148.174 -0.551915 114.114 107.768 -12.9135 -85.6383 6.45264 -18.7179 15.9881 38.9114 16.8235 152.231 -6.16503 8.35001 -91.8517 10.0585 -13.1294 -2.60122 -1.54627 -13.2309 -2.01088 -24.5145 -11.7338 -6.47562 -4.50188 -11.7338 -6.47563 73.4723 -59.6295 -121.039 14.0285 -18.1116 46.3598 -4.88555 52.4916 -140.936 -9.76198 3.79164 -53.5568 -114.743 -48.4178 42.5763 -11.4858 5.71365 0.666062 -35.1559 1.683 -117.336 9.30925 6.69825 55.745 -1.78451 -0.503287 4.49291 20.5151 -1.26779 -0.305503 
-268.181 84.6107 -257.353 82.4123 15.3437 88.969 174.856 49.5962 91.7314 -65.7266 -17.1541 17.6879 23.8776 -40.8913 -19.6849 108.575 -51.4103 -166.912 -148.167 0.800459 125.878 159.631 -14.3797 -72.1818 31.7177 -52.5079 50.2694 38.0855 15.5127 156.8 -5.7851 8.96212 -91.7226 8.82697 -12.3065 -2.58736 -2.78624 -12.4082 -2.03508 -25.6957 -10.9546 -6.20541 -5.68306 -10.9546 -6.20542 77.9156 -52.1972 -118.034 21.7625 -14.4274 40.3782 -7.61121 49.0954 -135.44 -11.9727 4.83808 -53.6329 -108.034 -43.3952 49.2943 -13.0342 13.5251 -6.78416 -29.2037 -4.51609 -115.884 15.9643 6.4514 34.4638 6.34847 -1.11303 -0.185128 16.8325 -0.868627 1.03838 
-264.139 86.8885 -252.952 82.6995 14.6076 88.8033 177.034 50.7129 86.4572 -75.0394 28.5625 11.1831 52.0191 -11.9615 -20.0498 26.5471 -4.4026 -4.9531 -158.274 41.2568 120.781 22.5685 53.4318 -99.5678 68.0959 31.0435 -0.868812 39.4253 20.9467 153.81 -5.52309 9.22914 -91.5852 8.30184 -11.72 -2.43176 -3.3168 -11.8155 -1.90655 -26.1921 -10.4427 -5.87557 -6.17945 -10.4427 -5.87559 80.5086 -48.2828 -115.822 26.2694 -13.2761 37.9008 -14.4144 45.6158 -125.081 -16.5547 6.94213 -53.8127 -104.72 -40.31 52.6721 -14.0296 23.2265 -11.6843 -18.791 -11.5747 -111.348 25.4957 2.1221 4.58452 9.46165 -1.83481 -2.35116 14.8575 -0.999671 1.62662 
-258.775 88.3353 -248.531 81.2063 13.4161 89.7091 -177.263 48.921 82.8571 -66.9338 71.7695 2.97727 54.5945 10.3733 19.5341 48.8368 24.7511 9.16167 -167.918 46.6057 117.123 -58.9894 78.5293 -40.9921 123.049 41.1251 -20.6586 40.608 25.25 151.949 -5.26145 9.046 -91.6572 8.66801 -11.2319 -2.55158 -2.95529 -11.3331 -2.04865 -25.7954 -9.94201 -5.83788 -5.78271 -9.942 -5.83788 80.4447 -47.9441 -116.057 25.3612 -12.3981 39.3167 -19.6992 36.3269 -114.655 -23.8879 10.8052 -55.2852 -105.121 -40.4283 52.1153 -14.3607 32.9041 -12.8386 -3.36351 -17.3172 -103.297 33.7246 -4.30529 -17.2563 8.87789 -1.98554 -1.42355 14.3971 -1.49465 0.795682 
-252.975 88.8401 -243.993 75.3881 11.3927 92.3331 -173.8 53.1454 81.7711 -52.7651 67.5175 -8.21204 55.5019 11.0464 17.709 51.1579 27.0854 7.62815 179.744 40.0057 117.567 -99.7016 64.0211 12.006 148.179 24.6691 -18.9741 42.3992 31.1782 149.781 -4.9003 8.58284 -92.0374 9.56811 -10.6879 -3.22418 -2.06123 -10.8193 -2.74567 -24.8456 -9.22292 -6.30787 -4.83294 -9.22292 -6.30788 80.685 -46.8438 -116.144 24.7536 -11.3339 39.5626 -24.4967 21.4748 -104.141 -33.9979 15.9844 -55.6002 -104.974 -40.5996 52.4308 -13.8004 40.8812 -15.3431 15.9665 -19.0487 -93.2104 39.4299 -6.95823 -22.3669 9.3543 -1.72107 -0.393144 14.1608 -1.66586 -0.535842 
-247.791 88.6733 -239.141 75.7809 9.55179 93.0547 -176.159 51.1795 82.621 -57.1191 57.9707 -2.33643 60.164 11.3107 13.9279 48.4798 25.5814 13.0742 -178.685 21.944 108.17 -97.2376 37.3568 36.2818 163.884 6.01626 -6.29534 43.4333 35.3004 149.401 -4.80964 8.76645 -91.9927 9.20241 -10.4839 -3.19543 -2.4286 -10.6143 -2.72623 -25.2023 -9.03719 -6.21783 -5.18968 -9.03717 -6.21782 80.5065 -47.0802 -116.319 24.2418 -11.6129 38.9037 -24.8443 7.67809 -96.86 -41.5486 18.8811 -53.1559 -105.562 -40.9135 51.6939 -12.0635 44.8101 -17.2834 31.8812 -15.5976 -86.9843 38.5705 -4.50888 -16.0695 9.38693 -1.44772 -1.41466 14.8428 -1.20288 -0.69571 
-242.542 88.3032 -234.026 77.5939 7.79698 93.1177 178.37 45.9405 85.3513 -61.1068 53.396 4.02047 60.6207 6.67864 12.1889 49.8909 28.0029 14.5133 -176.429 1.56404 105.319 -77.1376 23.6497 52.1586 167.561 -15.6357 7.26259 39.1924 19.5221 153.052 -4.86242 9.11947 -91.7591 8.51204 -10.4797 -2.82065 -3.11824 -10.5935 -2.35186 -25.9045 -9.14511 -5.86095 -5.89188 -9.1451 -5.86094 79.207 -48.2849 -117.779 23.3313 -11.074 38.5746 -15.3605 3.89811 -96.5591 -36.2023 14.2951 -47.6914 -105.704 -40.3646 51.1859 -12.2722 44.0996 -16.9227 39.6012 -13.0559 -88.8333 23.6454 -0.130915 -4.31341 8.80406 -0.822594 -3.06895 15.4234 -0.282169 -0.883284 
-237.016 87.9157 -229.215 77.5533 5.68239 93.3361 174.227 40.0242 88.4532 -62.1767 50.8391 7.90481 63.1659 9.67293 17.0168 49.6876 22.4409 -1.9612 175.559 -8.09236 111.268 -77.8433 40.901 47.617 152.914 -26.6038 6.93387 34.0191 -7.31074 145.392 -4.96377 9.29752 -91.6645 8.15913 -10.6376 -2.67161 -3.46956 -10.7447 -2.19574 -26.2698 -9.34005 -5.76818 -6.25715 -9.34004 -5.76817 77.1587 -48.3172 -120.818 23.0122 -8.88928 39.5751 -5.13843 2.82232 -98.436 -26.5319 7.68411 -37.7667 -105.93 -40.1804 50.7415 -12.3663 42.1176 -16.0411 42.5536 -12.9094 -92.5574 2.41855 0.270882 4.25295 7.26161 0.630972 -1.19816 17.6561 0.231934 -3.35771 
-230.68 87.2131 -224.246 79.6126 0.254244 94.5838 173.876 30.3245 91.9859 -60.9351 41.365 9.7831 69.6481 18.9686 21.8757 52.0897 22.2004 -11.3662 164.489 -11.6489 110.783 -79.135 44.6724 33.3617 113.858 -30.9607 -1.97045 12.6147 -39.3262 103.508 -4.66586 9.80538 -91.5097 7.14993 -9.96741 -2.5304 -4.48401 -10.069 -2.08508 -27.2508 -8.74386 -5.42788 -7.2382 -8.74384 -5.42787 77.3707 -49.2541 -120.083 22.6096 -7.87569 38.7728 -0.704953 2.50167 -100.648 -16.6216 2.23457 -21.4395 -105.903 -39.5328 50.433 -11.3299 41.9367 -17.2942 41.1701 -14.0757 -95.149 -11.0309 -0.968736 7.4623 7.45333 1.92277 -1.80084 18.9846 1.62819 -3.06533 
-225.65 87.7572 -220.431 80.9477 -3.54409 94.5591 173.909 21.2729 92.6595 -53.8244 34.2284 9.92228 69.2122 21.5419 23.7212 56.8351 26.2434 -11.8357 153.028 1.84727 99.1481 -89.351 24.8077 19.5287 57.5829 -6.48458 -4.35266 12.434 -5.8862 32.2924 -4.79485 10.1277 -91.2934 6.51706 -10.1273 -2.17623 -5.11509 -10.2132 -1.7239 -27.9011 -9.00217 -5.14075 -7.88848 -9.00216 -5.14076 78.3954 -48.2544 -119.005 23.9588 -7.52657 37.856 -0.646972 2.42677 -101.216 -6.4985 0.406775 -12.4625 -106.29 -39.3404 49.7321 -10.4163 43.2592 -17.968 37.6232 -15.4588 -96.1692 -11.0804 -1.04973 8.18268 9.32501 3.67836 -2.36047 18.095 3.52078 -2.96018 
-221.276 88.9784 -216.986 83.0889 -6.6005 94.867 174.389 11.6467 94.2375 -45.8191 33.7804 9.70382 65.2225 20.3775 24.8025 58.2497 29.3863 -6.6541 147.949 10.2033 94.861 -88.6713 15.8004 10.8504 47.5728 -1.6593 -0.955708 45.2355 2.67433 18.6492 -4.93173 10.4469 -91.1284 5.88411 -10.3262 -1.9262 -5.7461 -10.4009 -1.46502 -28.5506 -9.26646 -4.96465 -8.53789 -9.26649 -4.96467 79.8182 -47.0695 -117.373 26.316 -7.29061 37.9665 -0.882693 2.77168 -101.282 0.390928 0.0711203 -6.26839 -106.797 -38.7633 48.6271 -8.80201 45.473 -19.5469 31.1413 -15.8757 -96.2788 -6.37114 -0.482732 7.01518 11.7073 4.83484 -3.02125 16.5047 4.83355 -3.18847 
-216.85 90.1102 -213.37 84.2911 -12.0237 95.7732 177.923 3.51436 96.9471 -37.3442 34.119 8.13944 60.5725 17.8158 23.3011 60.6697 32.4741 -4.75411 147.098 20.8036 94.2578 -88.4775 11.3999 7.39591 56.6855 -1.54258 -0.845106 44.6915 1.51488 6.95094 -4.68363 10.5883 -90.9525 5.619 -9.75508 -1.62931 -6.01548 -9.81721 -1.1943 -28.7955 -8.81134 -4.50675 -8.78282 -8.81133 -4.50675 80.0826 -47.857 -116.641 28.3819 -8.68363 38.9158 -5.16015 4.51462 -99.493 1.32016 -0.0848875 -10.8702 -106.422 -37.3724 48.418 -7.07106 47.6992 -21.7937 22.4646 -15.4933 -96.0721 -1.26877 -0.011543 3.81416 12.3961 5.79421 -5.27555 16.1562 6.67655 -1.21498 
-211.942 91.2334 -209.447 84.3049 -19.9902 96.8829 -177.289 -2.19484 100.013 -30.5229 34.1551 6.15485 54.9491 7.44609 14.3237 66.6574 38.5702 -4.13833 150.44 30.9735 96.2707 -84.0608 9.33006 6.57971 59.3038 -1.12322 -0.548411 39.1221 0.802413 4.82579 -3.9399 10.3296 -90.7831 6.16459 -8.20127 -1.27648 -5.48055 -8.24944 -0.911842 -28.1905 -7.43655 -3.69498 -8.17782 -7.43654 -3.69499 79.8614 -52.9544 -114.948 24.4983 -8.60936 40.9743 3.38777 1.78077 -101.051 3.22465 0.22943 -2.69877 -108.443 -36.3724 44.6699 -8.40696 49.7217 -18.7822 17.9332 -15.3912 -96.113 3.20583 0.232857 2.28867 8.83374 5.7246 -10.8793 15.9784 8.79726 5.21119 
-206.541 92.2035 -204.762 84.9099 -29.9208 96.5984 -171.752 -9.47348 101.296 -21.5557 33.8368 3.18805 48.8026 -2.50591 4.44684 59.7994 37.5382 7.93889 157.49 38.0964 96.7968 -73.6358 8.78616 7.06487 55.863 0.439488 0.546998 42.3926 1.21165 6.33074 -3.38447 10.1638 -90.6041 6.52109 -7.01711 -0.938268 -5.13106 -7.05156 -0.627006 -27.7959 -6.40961 -3.01195 -7.78323 -6.40962 -3.01197 80.2599 -50.6177 -115.26 25.7072 -8.43075 41.1654 3.31153 2.71354 -102.242 4.47407 0.251811 -3.33697 -107.726 -36.6585 45.9601 -9.49809 49.0242 -19.699 17.9354 -14.993 -95.8489 4.78553 0.219941 0.518259 7.45189 7.80685 -7.69846 15.1959 9.98549 5.28924 
-200.563 92.6487 -199.048 82.7372 -38.675 93.7708 -169.164 -16.4283 100.223 -9.51728 29.1116 0.915308 36.4047 -11.9277 -5.78551 48.4591 27.3594 17.9136 164.733 43.1259 96.9108 -59.0087 3.5131 7.75621 57.0268 0.693309 0.71152 44.3556 0.82988 -1.2508 -2.95616 9.76118 -90.5709 7.3305 -6.1496 -0.832594 -4.32593 -6.18027 -0.560101 -26.9609 -5.61422 -2.64782 -6.9482 -5.61423 -2.64783 82.2306 -45.5016 -114.326 28.7559 -8.41135 40.7095 2.16058 3.17859 -103.611 5.0254 0.289281 -2.47605 -107.064 -38.0238 47.7915 -11.0974 47.5694 -20.1689 17.4539 -15.2442 -97.1059 3.82473 0.173225 0.512119 7.04069 9.86141 -1.60892 13.7739 10.3606 3.06123 
-194.209 93.1068 -192.323 77.1122 -45.321 87.7031 -171.217 -17.3815 95.834 -8.05247 27.5433 0.518879 30.567 -16.1568 -6.63726 31.7532 3.17844 2.7847 172.1 46.591 96.1529 -42.876 2.2217 7.44988 53.8649 1.80572 1.64593 51.4175 2.00196 4.43576 -2.67568 9.25682 -90.5127 8.34754 -5.5657 -0.676181 -3.31152 -5.59003 -0.429805 -25.9292 -5.10453 -2.32178 -5.91656 -5.10453 -2.32179 82.9202 -41.0712 -115.017 31.0847 -9.0644 38.9695 1.36869 3.65642 -103.21 5.38491 0.289002 -2.45553 -106.533 -39.0396 49.19 -10.7658 45.9303 -21.685 19.3682 -15.8077 -98.3158 5.0668 0.245599 0.796575 6.14714 11.5403 2.94264 14.3764 10.8579 1.14298 
-187.965 92.5247 -185.345 70.2326 -49.6709 79.0534 -174.467 -11.3408 89.7702 -20.1695 20.5329 0.447988 35.6427 -13.4509 -3.83615 32.7047 4.29273 2.66677 176.159 48.9938 95.5402 -32.9836 2.37643 6.22326 53.1787 2.05631 1.83981 53.2486 2.08155 3.71402 -2.23949 8.77035 -90.174 9.33857 -4.54396 -0.0103002 -2.32441 -4.54002 0.190114 -24.9193 -4.3304 -1.37809 -4.90664 -4.33041 -1.37809 83.1051 -42.3155 -114.195 30.2148 -11.4055 36.932 1.54725 3.82708 -102.924 4.88699 0.312558 -1.83303 -107.066 -38.6962 48.1748 -8.59255 45.2892 -23.5598 20.8526 -16.4229 -98.7546 4.0693 0.167234 0.26484 5.38094 11.247 0.82671 15.2861 11.3538 3.36091 
